<?xml version="1.0" encoding="utf-8"?>
<!-- Generator: Adobe Illustrator 23.0.1, SVG Export Plug-In . SVG Version: 6.00 Build 0)  -->
<svg version="1.1" id="Layer_6" xmlns="http://www.w3.org/2000/svg" xmlns:xlink="http://www.w3.org/1999/xlink" x="0px" y="0px"
	 viewBox="0 0 174.5 44.1" style="enable-background:new 0 0 174.5 44.1;" xml:space="preserve">
<style type="text/css">
	.st0{fill:#55C9E9;}
	.st1{fill:none;stroke:#54ABC6;stroke-miterlimit:10;}
	.st2{fill:none;stroke:#76AFB8;stroke-miterlimit:10;}
	.st3{fill:#DCDBDB;}
	.st4{fill:none;stroke:#90D5DF;stroke-miterlimit:10;}
	.st5{fill:none;stroke:#4E95A5;stroke-miterlimit:10;}
</style>
<path class="st0" d="M33.6,28.7c0.1-0.8,0.2-1.7,0.2-2.5s-0.1-1.7-0.2-2.5c-1.2-8.1-8.3-14.4-16.7-14.4C7.5,9.3,0,16.8,0,26.2
	c0,9.3,7.5,16.9,16.9,16.9c6.3,0,11.7-3.5,14.7-8.5l-6.8-2.6c-1.8,2.4-4.6,4-7.9,4c-4.5,0-8.3-3-9.4-7.2H33.6z M16.9,15.7
	c4.5,0,8.3,3,9.4,7.2H7.5C8.6,18.7,12.4,15.7,16.9,15.7z"/>
<path class="st1" d="M35.9,34.5c33.8-75.6,98.3,18.3,136.6-1.4"/>
<path class="st2" d="M35.9,34.5c34.6-66.4,101.4,20.2,136.6,2.2"/>
<rect x="49.2" y="8.7" class="st3" width="7.3" height="22.1"/>
<polyline class="st3" points="56.5,16.3 56.5,23.6 49.2,23.6 49.2,16.3 "/>
<rect x="58.5" y="16.3" class="st3" width="11.2" height="7.3"/>
<rect x="41.4" y="16.3" class="st3" width="5.7" height="7.3"/>
<path class="st4" d="M35.9,34.5c64-86.3,74.3,26,136.6-5.8"/>
<path class="st3" d="M56.5,32.9c0,4.7,2.6,5,6.2,5v6.3c-11,0.3-13.5-1.9-13.5-11.3v-5.2v-3.9h7.3V28V32.9z"/>
<rect x="126" y="8.7" class="st3" width="7.3" height="22.1"/>
<polyline class="st3" points="133.4,16.3 133.4,23.6 126,23.6 126,16.3 "/>
<rect x="135.3" y="16.3" class="st3" width="11.2" height="7.3"/>
<rect x="118.3" y="16.3" class="st3" width="5.7" height="7.3"/>
<path class="st3" d="M133.4,32.9c0,4.7,2.6,5,6.2,5v6.3c-11,0.3-13.5-1.9-13.5-11.3v-5.2v-3.9h7.3V28V32.9z"/>
<g>
	<g>
		<path class="st0" d="M88.4,11.3c19.9-4,18.6,10,18.6,10v16.1c2.8-3.1,4.5-7.1,4.5-11.6c0-9.6-7.8-17.3-17.3-17.3
			c-2,0-3.9,0.4-5.7,1V11.3z"/>
		<path class="st0" d="M99.9,37.7V21.3c0,0,0-6.6-11.5-4.2v20.5h-6.9c3.2,3.4,7.6,5.5,12.6,5.5c4.9,0,9.4-2.1,12.6-5.4H99.9z"/>
		<path class="st0" d="M81.3,14.2c-2.8,3.1-4.5,7.1-4.5,11.6s1.7,8.5,4.5,11.6V14.2z"/>
	</g>
</g>
<path class="st5" d="M35.9,34.5c89.4-90.8,72.1,34,132.3-8.2"/>
<circle class="st5" cx="168.7" cy="25.8" r="0.9"/>
<circle class="st4" cx="173.1" cy="28.2" r="0.9"/>
<circle class="st1" cx="173.1" cy="32.9" r="0.9"/>
<circle class="st2" cx="173.1" cy="36.2" r="0.9"/>
</svg>
