<svg xmlns="http://www.w3.org/2000/svg" viewBox="0 0 49.98 78.91"><defs><style>.cls-1{fill:#fff;}</style></defs><g id="Layer_2" data-name="Layer 2"><g id="Calque_1" data-name="Calque 1"><path class="cls-1" d="M0,67s0,0,0,0v5.26a1.32,1.32,0,0,0,1.32,1.32H4v3.94a1.32,1.32,0,1,0,2.63,0V73.65H9.21a1.32,1.32,0,0,0,1.31-1.32v-5L17.46,50h6.21v2.63a1.32,1.32,0,0,0,2.63,0V50h6.21l6.94,17.35v5a1.32,1.32,0,0,0,1.32,1.32H43.4v3.94a1.32,1.32,0,1,0,2.63,0V73.65h2.63A1.32,1.32,0,0,0,50,72.33V67.07s0,0,0,0a1.32,1.32,0,0,0-.08-.44L43.24,50H46a1.32,1.32,0,0,0,0-2.64H42.19L34.1,27.13a1.43,1.43,0,0,0-.39-.52,9.16,9.16,0,0,0-2.15-9.37V10.52a1.31,1.31,0,0,0-1.31-1.31H28.93V1.32A1.32,1.32,0,0,0,27.62,0H22.36A1.32,1.32,0,0,0,21,1.32V9.21H19.73a1.31,1.31,0,0,0-1.32,1.31v6.72a9.14,9.14,0,0,0-2.14,9.37,1.32,1.32,0,0,0-.39.52L7.79,47.34H4A1.32,1.32,0,1,0,4,50H6.74L.09,66.58A1.32,1.32,0,0,0,0,67Zm7.88,4H2.63V68.39H7.89ZM26.3,47.34V44.71a1.32,1.32,0,0,0-2.63,0v2.63H18.51l5.8-14.5c.23,0,.45,0,.68,0s.45,0,.67,0l5.8,14.5ZM47.34,71H42.08V68.39h5.26Zm-.62-5.26H41.66L35.35,50h5ZM39.35,47.34H34.29l-6-15.07a9.31,9.31,0,0,0,3.92-2.86ZM23.67,2.63H26.3V9.21H23.67Zm5.26,9.21v3.53a9.1,9.1,0,0,0-7.89,0V11.84ZM25,17.1a6.58,6.58,0,1,1-6.58,6.57A6.57,6.57,0,0,1,25,17.1ZM17.8,29.41a9.34,9.34,0,0,0,3.91,2.86l-6,15.07H10.62ZM9.57,50h5.06L8.32,65.76H3.26Z"/></g></g></svg>