<?xml version="1.0" encoding="utf-8"?>
<!-- Generator: Adobe Illustrator 24.1.2, SVG Export Plug-In . SVG Version: 6.00 Build 0)  -->
<svg version="1.1" id="Layer_1" xmlns="http://www.w3.org/2000/svg" x="0px" y="0px"
	 viewBox="0 0 62 65.7" style="enable-background:new 0 0 62 65.7;" xml:space="preserve">
<style type="text/css">
	.st0{fill:#FFFFFF;}
</style>
<g>
	<path class="st0" d="M51.9,42.8c0-2.9,0-5.7,0-8.4c0-0.3,0-0.7,0-1c0-0.6,0.2-1.1,0.9-1.1c0.8-0.1,1,0.5,1.1,1.1c0,0.5,0,1,0,1.5
		c0,2.7,0,5.5,0,8.2c0,0.8,0.1,1.7-0.8,2.2c-1,0.5-1.5-0.2-2.2-0.6c-0.4-0.3-0.7-0.8-1.5-0.9c0,3.4,0,6.7,0,10.1c0,2.3,0,4.6,0,6.9
		c0,3.1-1.8,4.9-4.9,4.9c-13.1,0-26.2,0-39.3,0c-3.2,0-5.1-1.9-5.1-5.1c0-3.1,0-6.2,0-9.2c0-12.4,0-24.8,0-37.2c0-0.3,0-0.6,0-0.9
		c0-0.8,0.1-1.6,1-1.6c1,0,1,0.9,1,1.6c0,15.5,0,31.1,0,46.6c0,3.2,0.7,3.9,3.9,3.9c12.6,0,25.1,0,37.7,0c3.1,0,3.9-0.8,3.9-3.9
		c0-5.3,0-10.6,0-16.1c-0.8,0.1-1.2,0.8-1.8,1.2s-1.1,0.7-1.9,0.3c-0.7-0.4-0.7-1-0.7-1.6c0-4.2,0-8.4,0-12.6c0-1.1-0.1-1.7-1.5-1.8
		c-2.8-0.3-3.8-1.5-4.1-4.3c-0.1-1.3-0.5-2.3-1.3-3.3c-2-2.5-2-3.9,0-6.4c0.8-1,1.3-2.1,1.4-3.5c0.2-2.7,1.4-4,4.1-4.2
		c2.3-0.1,3.7-1.9,5.5-2.7c0.3-0.1,0.2-0.5,0.2-0.8C47.2,3,46.6,2.2,45.4,2c-0.6-0.1-1.2-0.1-1.7-0.1c-12.5,0-25,0-37.5,0
		c-3.2,0-3.9,0.7-3.9,4c0,0.7,0,1.5,0,2.2c0,0.6-0.3,1-0.9,1.1c-0.9,0-1.3-0.4-1.3-1c0-1.8-0.3-3.5,0.3-5.2C1,1.1,2.8,0,4.9,0
		C13.4,0,22,0,30.5,0c4.5,0,9.1,0,13.6,0c3,0,4.6,1.3,5.1,4.2c0,0.2,0.1,0.6,0.2,0.6c1.9,0.9,3.3,2.7,5.7,2.8c2.6,0.1,3.8,1.4,4,4
		c0.1,1.5,0.6,2.7,1.6,3.8c1.8,2.3,1.8,3.6,0,5.9c-0.9,1.2-1.5,2.5-1.6,4c-0.2,2.6-1.5,3.7-4.4,4c-1,0.1-1.9,0.3-2.7,0.9
		c-3.3,2.4-3.4,2.4-7.1,0.5c0,4,0,8,0,12.1c1.3-0.3,1.9-2,3.3-2C49.8,40.7,50.5,42.2,51.9,42.8z M48.4,6.7c-0.4-0.1-0.8,0.1-1.1,0.4
		c-1.8,1.6-3.9,2.4-6.3,2.6c-0.9,0.1-1.3,0.8-1.4,1.6c-0.2,2.2-0.8,4.1-2.3,5.7c-0.9,0.9-0.8,1.9,0,2.9c1.4,1.5,2.1,3.3,2.2,5.4
		c0.1,1.2,0.8,1.9,1.9,2c2,0.1,3.8,0.8,5.3,2.1c1.1,1,2.2,0.9,3.2,0c1.5-1.3,3.2-2,5.2-2.1c1.2-0.1,1.9-0.6,2-1.9
		c0.1-2,0.8-3.9,2.2-5.4c1-1,0.9-2.1,0-3.1c-1.4-1.5-2-3.2-2.1-5.1c-0.1-1.3-0.7-2-2-2.1c-2.1-0.1-4-0.9-5.5-2.3
		C49.4,6.9,49,6.6,48.4,6.7z"/>
	<path class="st0" d="M24.7,28.4c-1.7,0-3.3,0-5,0c-1.8-0.1-3.1-1.3-3.1-3c0-3.2,1-5.7,4.1-6.9c1.3-0.5,0.9-1.7,0.4-2.4
		c-1.5-2.2-1.2-4.6-0.9-6.9c0.3-1.9,2.6-3.4,4.6-3.3c2.3,0.1,4.2,1.8,4.3,4.2c0.1,2.1,0.4,4.3-1.1,6.1c-0.7,0.8-0.2,2,0.8,2.4
		c2.8,1.2,4.5,4.3,3.9,7.3c-0.3,1.4-1.5,2.5-3,2.5C28.1,28.5,26.4,28.4,24.7,28.4L24.7,28.4z M24.7,26.6c1.5,0,2.9,0,4.4,0
		c0.9,0,1.8-0.2,1.8-1.3c0-1.3-0.2-2.6-1-3.8c-0.8-1.1-1.9-1.4-3.1-0.7c-1.4,0.8-2.8,0.9-4.2,0c-0.8-0.5-1.5-0.4-2.3,0
		c-1.3,0.8-1.5,2.2-1.7,3.5c-0.2,1.6,0.2,2.2,1.8,2.2C21.9,26.6,23.3,26.6,24.7,26.6z M27.3,9.6c-0.2-1.1-1.3-1.7-2.2-1.8
		c-1.3-0.1-2.4,0.4-2.8,1.6c-0.5,1.5-0.5,3,0,4.5c0.4,1.5,1.8,2.1,3.3,1.6c1.4-0.5,2.2-1.6,1.9-3.6L27.3,9.6z M24.8,17.6
		c-0.5,0.2-1.3-0.6-1.3,0.6c0,1,0.6,1.1,1.3,1.1c0.7,0,1.4,0,1.3-1C26,17.1,25.3,17.7,24.8,17.6z"/>
	<path class="st0" d="M24.6,34.6c-4.8,0-9.6,0-14.3,0c-0.8,0-1.7,0-1.7-1.1c0-1,0.9-0.9,1.7-0.9c9.5,0,18.9,0,28.4,0
		c0.3,0,0.6,0,0.9,0c0.5,0.1,0.9,0.4,0.9,1s-0.4,1-1,1c-1.1,0-2.1,0-3.2,0C32.4,34.6,28.5,34.6,24.6,34.6z"/>
	<path class="st0" d="M24.5,43c4.8,0,9.6,0,14.4,0c0.8,0,1.6,0,1.5,1c0,0.9-0.9,0.9-1.6,0.9c-3.4,0-6.8,0-10.3,0c-6,0-12,0-18,0
		c-0.4,0-0.9,0-1.3-0.1c-0.4-0.1-0.7-0.4-0.7-0.8c0-0.5,0.3-0.8,0.7-1c0.4-0.1,0.8-0.1,1.2-0.1C15.2,43,19.8,43,24.5,43z"/>
	<path class="st0" d="M24.5,58.6c4.7,0,9.4,0,14.1,0c0.3,0,0.7,0,1,0c0.6,0.1,0.9,0.5,0.9,1s-0.3,0.8-0.8,0.9
		c-0.4,0.1-0.9,0.1-1.3,0.1c-9.3,0-18.6,0-27.8,0c-0.3,0-0.6,0-0.9,0c-0.6-0.1-1.1-0.3-1-1c0.1-0.6,0.5-0.9,1.1-0.9
		c1.2,0,2.3,0,3.5,0C17,58.6,20.7,58.6,24.5,58.6z"/>
	<path class="st0" d="M24.5,55.4c-4.7,0-9.5,0-14.2,0c-0.8,0-1.6,0-1.7-1c0-1,0.9-1.1,1.7-1.1c9.5,0,18.9,0,28.4,0
		c0.7,0,1.6,0,1.7,0.9c0.1,1-0.7,1.1-1.5,1.1C34.1,55.4,29.3,55.4,24.5,55.4z"/>
	<path class="st0" d="M24.5,37.8c4.6,0,9.3,0,13.9,0c0.4,0,0.8,0,1.2,0c0.5,0.1,0.9,0.4,0.9,1c0,0.5-0.4,0.8-0.8,0.9
		c-0.4,0.1-0.8,0.1-1.2,0.1c-9.3,0-18.7,0-28,0c-0.2,0-0.4,0-0.6,0c-0.7,0-1.3-0.3-1.3-1.1c0-0.6,0.6-1,1.2-1c0.4,0,0.9,0,1.3,0
		C15.6,37.8,20,37.8,24.5,37.8z"/>
	<path class="st0" d="M24.5,50.1c-4.6,0-9.3,0-13.9,0c-0.4,0-0.8,0-1.2,0c-0.5-0.1-0.8-0.4-0.8-0.9s0.3-0.9,0.9-0.9
		c1.2,0,2.3,0,3.5,0c8.4,0,16.9,0,25.3,0c0.3,0,0.6,0,0.9,0c0.7,0,1.2,0.2,1.2,0.9s-0.5,1-1.2,0.9c-1.6,0-3.1,0-4.7,0
		C31.2,50.1,27.8,50.1,24.5,50.1z"/>
	<path class="st0" d="M6,34.6c-0.6,0-0.9-0.4-0.9-0.9c0-0.6,0.4-1,1-1c0.6,0,0.9,0.4,0.9,0.9C7,34.2,6.6,34.6,6,34.6z"/>
	<path class="st0" d="M6.1,43c0.6,0.1,1,0.5,0.9,1.1c-0.1,0.5-0.5,0.9-1,0.8c-0.5,0-0.9-0.4-0.9-0.9C5.1,43.4,5.4,43,6.1,43z"/>
	<path class="st0" d="M7,59.5c-0.2,0.7-0.5,1.1-1.1,1C5.4,60.4,5,60,5,59.5c0.1-0.6,0.5-1,1.1-0.9S6.9,59.1,7,59.5z"/>
	<path class="st0" d="M7,49.2c-0.2,0.6-0.5,1-1.1,0.9s-0.9-0.5-0.8-1c0-0.6,0.4-0.9,1.1-0.8C6.7,48.3,7,48.7,7,49.2z"/>
	<path class="st0" d="M6,53.4c0.6,0.1,1,0.4,1,1c0,0.5-0.3,0.9-0.9,1c-0.7,0-1-0.4-1-1C5,53.8,5.4,53.5,6,53.4z"/>
	<path class="st0" d="M7,38.8c-0.1,0.6-0.4,1-1,1c-0.5,0-0.9-0.4-1-0.9c-0.1-0.6,0.3-1,0.9-1.1C6.6,37.8,6.9,38.2,7,38.8z"/>
	<path class="st0" d="M43.6,21.5c0.6-1.4-0.6-2.4-1.5-3.5c-1.4-1.7-1.2-2.6,1-3c1.8-0.3,2.9-1.2,3.8-2.8c0.9-1.7,2-1.7,2.9-0.1
		c0.9,1.7,2.2,2.6,4,2.9c1.9,0.4,2.1,1.3,0.8,2.7c-1.3,1.4-1.8,2.9-1.5,4.7c0.2,1.8-0.5,2.3-2.3,1.6c-1.4-0.5-2.7-1-4.3-0.3
		C43.9,25.1,43.5,24.8,43.6,21.5z M51.4,22.4c-0.5-2.1-0.2-3.8,1.2-5.1c0.4-0.4,0.1-0.6-0.3-0.7c-1.6-0.2-2.7-1-3.4-2.4
		c-0.3-0.5-0.6-0.8-1-0.1c-0.7,1.4-1.8,2.2-3.4,2.4c-0.5,0.1-0.8,0.3-0.3,0.7c1.4,1.3,1.6,3,1.2,5.2C47.5,21,49.3,21.3,51.4,22.4z"
		/>
</g>
</svg>
