<svg xmlns="http://www.w3.org/2000/svg" viewBox="0 0 84.17 84.17"><defs><style>.cls-1{fill:#fff;}</style></defs><g id="Layer_2" data-name="Layer 2"><g id="Calque_1" data-name="Calque 1"><path class="cls-1" d="M68.21,8.1,64.28,4.17a1.39,1.39,0,0,0-2,0L54.44,12a1.4,1.4,0,0,0,0,2l3.93,3.93a1.4,1.4,0,0,0,2,0l7.86-7.86a1.4,1.4,0,0,0,0-2ZM59.36,15l-1.94-2,5.87-5.88,1.95,2Z"/><path class="cls-1" d="M72.14,12,68.21,8.1a1.4,1.4,0,0,0-2,0L58.37,16a1.39,1.39,0,0,0,0,2l3.93,3.93a1.4,1.4,0,0,0,2,0L72.14,14A1.39,1.39,0,0,0,72.14,12ZM63.29,18.9,61.34,17l5.88-5.88,2,1.95Z"/><path class="cls-1" d="M76.07,16,72.14,12a1.39,1.39,0,0,0-2,0L62.3,19.89a1.4,1.4,0,0,0,0,2l3.93,3.93a1.4,1.4,0,0,0,2,0l7.86-7.86a1.4,1.4,0,0,0,0-2Zm-8.85,6.86-2-1.94L71.15,15,73.09,17Z"/><path class="cls-1" d="M80,19.89,76.07,16a1.4,1.4,0,0,0-2,0l-7.86,7.86a1.39,1.39,0,0,0,0,2l3.93,3.93a1.4,1.4,0,0,0,2,0L80,21.87A1.39,1.39,0,0,0,80,19.89Zm-8.85,6.86-2-1.94,5.88-5.88L77,20.88Z"/><path class="cls-1" d="M61.33,28.73l-5.89-5.9a1.45,1.45,0,0,0-2,0L40.69,35.6a5.57,5.57,0,1,0,7.87,7.88L61.33,30.71a1.38,1.38,0,0,0,0-2ZM46.58,41.5a2.76,2.76,0,1,1-3.91-3.91L54.45,25.81l3.91,3.91Z"/><path class="cls-1" d="M42.67,55.25,21.06,33.64a1.4,1.4,0,1,0-2,2L40.69,57.23a1.38,1.38,0,0,0,2,0A1.39,1.39,0,0,0,42.67,55.25Z"/><path class="cls-1" d="M50.53,63.11,46.6,59.18a1.4,1.4,0,0,0-2,2l3.92,3.93a1.4,1.4,0,0,0,1,.41,1.36,1.36,0,0,0,1-.41A1.39,1.39,0,0,0,50.53,63.11Z"/><path class="cls-1" d="M26,66.06,18.11,58.2a1.39,1.39,0,0,0-2,0l-4.41,4.41a3.49,3.49,0,0,0,0,5l4.89,4.89a3.5,3.5,0,0,0,2.47,1,3.55,3.55,0,0,0,2.48-1L26,68a1.4,1.4,0,0,0,0-2Zm-6.39,4.41a.71.71,0,0,1-1,0L13.7,65.58a.71.71,0,0,1,0-1l3.42-3.42L23,67.05Z"/><path class="cls-1" d="M18.11,70l-3.93-3.93a1.43,1.43,0,0,0-2,0L.41,77.85a1.41,1.41,0,0,0-.41,1,1.43,1.43,0,0,0,.41,1l3.93,3.93a1.4,1.4,0,0,0,2,0L18.11,72A1.39,1.39,0,0,0,18.11,70ZM5.33,80.78,3.39,78.84,13.19,69l2,2Z"/><path class="cls-1" d="M83,22.83,61.34,1.22a4.19,4.19,0,0,0-5.92,0L37.74,18.9a1.45,1.45,0,0,0-.41,1,1.43,1.43,0,0,0,.41,1l9.82,9.82a1.44,1.44,0,0,0,2,0l4.9-4.9,3.91,3.91-4.9,4.9a1.4,1.4,0,0,0,0,2l9.82,9.83a1.4,1.4,0,0,0,2,0L83,28.75A4.19,4.19,0,0,0,83,22.83Zm-2,3.94L64.27,43.45l-7.84-7.84,4.9-4.9a1.38,1.38,0,0,0,0-2l-5.89-5.9a1.45,1.45,0,0,0-2,0l-4.91,4.91L40.72,19.9,57.4,3.21a1.38,1.38,0,0,1,2,0L81,24.82A1.38,1.38,0,0,1,81,26.77Z"/><path class="cls-1" d="M67.23,46.41,55.44,34.62a1.39,1.39,0,0,0-2,0L46.58,41.5a2.84,2.84,0,0,1-3.91,0,2.76,2.76,0,0,1,0-3.91l6.88-6.88a1.39,1.39,0,0,0,0-2L37.76,16.94a1.39,1.39,0,0,0-2,0l-16.7,16.7a1.22,1.22,0,0,0-.34.55L11.86,54.82a1.38,1.38,0,0,0,.34,1.43L27.92,72a1.37,1.37,0,0,0,1,.41,1.31,1.31,0,0,0,.44-.07L50,65.43a1.31,1.31,0,0,0,.55-.34l16.7-16.7A1.39,1.39,0,0,0,67.23,46.41ZM48.78,62.88,29.29,69.37,14.8,54.88l6.49-19.49L36.77,19.91l9.8,9.81L40.69,35.6a5.55,5.55,0,0,0,0,7.88,5.68,5.68,0,0,0,7.87,0l5.89-5.88,9.8,9.8Z"/><path class="cls-1" d="M38.74,61.15,23,45.43a1.4,1.4,0,0,0-2,2L36.76,63.13a1.4,1.4,0,0,0,2-2Z"/><path class="cls-1" d="M30.88,61.15,23,53.29a1.4,1.4,0,0,0-2,2l7.86,7.86a1.4,1.4,0,1,0,2-2Z"/></g></g></svg>