<svg xmlns="http://www.w3.org/2000/svg" viewBox="0 0 100.2 80.41"><defs><style>.cls-1{fill:#fff;}</style></defs><g id="Layer_2" data-name="Layer 2"><g id="Calque_1" data-name="Calque 1"><path class="cls-1" d="M79.92,15.25a2,2,0,1,0-2.77,0A2,2,0,0,0,79.92,15.25Z"/><path class="cls-1" d="M25.54,19.3a2,2,0,1,0-2.77,0A2,2,0,0,0,25.54,19.3Z"/><path class="cls-1" d="M14,30.57l5.86-5.86a2,2,0,0,0-2.77-2.77L11.25,27.8A2,2,0,1,0,14,30.57Z"/><path class="cls-1" d="M86.37,24.89a2,2,0,0,0,2.77-2.76l-3.9-3.91A2,2,0,1,0,82.47,21Z"/><path class="cls-1" d="M99.62,22.71,77.49.57a2,2,0,0,0-2.73,0L64.84,9.88l0,0a8.21,8.21,0,0,1-6.11,2.76c-4.72,0-8.34,1.34-11.35,4.19a14.55,14.55,0,0,0-9.16-4L28.42,3.12a2,2,0,0,0-2.77,0L.57,28.19a2,2,0,0,0,0,2.72l0,.05S16.89,47.25,16.91,47.28l-.69.69a6.84,6.84,0,0,0,4.92,11.68,6.83,6.83,0,0,0,6.92,6.92A6.83,6.83,0,0,0,35,73.49a6.75,6.75,0,0,0,2,4.92,6.86,6.86,0,0,0,9.69,0l.69-.69.69.69a6.85,6.85,0,0,0,11.69-4.92,6.83,6.83,0,0,0,6.92-6.91,6.86,6.86,0,0,0,6.92-6.93A6.84,6.84,0,0,0,78.49,48l-.69-.69c13.65-13.63-3.61,3.64,21.82-21.8A2,2,0,0,0,99.62,22.71ZM4.72,29.58,27,7.27l7.52,7.52-22.3,22.3ZM19,54.89a2.94,2.94,0,0,1,0-4.16l6.92-6.92A2.94,2.94,0,0,1,30.06,48l-6.92,6.91A2.94,2.94,0,0,1,19,54.89Zm6.92,6.91a2.93,2.93,0,0,1,0-4.15l6.92-6.92A2.93,2.93,0,1,1,37,54.88h0L30.06,61.8A2.93,2.93,0,0,1,25.91,61.8Zm6.92,6.92a2.93,2.93,0,0,1,0-4.15l6.92-6.92A2.93,2.93,0,1,1,43.9,61.8h0L37,68.72A2.93,2.93,0,0,1,32.83,68.72Zm6.92,6.92a2.93,2.93,0,0,1,0-4.15l6.92-6.92a2.93,2.93,0,1,1,4.15,4.15L43.9,75.64A2.93,2.93,0,0,1,39.75,75.64Zm15.22,0a2.93,2.93,0,0,1-4.15,0L50.13,75l3.46-3.46a7.55,7.55,0,0,0,.64-.74l.74.74h0A2.93,2.93,0,0,1,55,75.64ZM75.73,54.88a2.94,2.94,0,0,1-4.16,0l-9-9a2,2,0,0,0-2.77,2.77l9,9a2.93,2.93,0,0,1-4.15,4.15l-9-9a2,2,0,0,0-2.77,2.77l9,9a3,3,0,0,1,0,4.15,2.9,2.9,0,0,1-2.08.86c-1.86,0-2.46-1.46-4.22-3a6.85,6.85,0,0,0-6.92-6.78,6.83,6.83,0,0,0-6.92-6.92A6.83,6.83,0,0,0,34.83,46a6.79,6.79,0,0,0-2-4.91,6.86,6.86,0,0,0-9.69,0l-3.46,3.46L15,39.86l23-23a10.57,10.57,0,0,1,6.53,2.79l-5.53,5.52A7.83,7.83,0,0,0,50.13,36.2l5.53-5.53L75.73,50.74A2.93,2.93,0,0,1,75.73,54.88ZM75,44.51,58.43,27.9l1.38-1.38A2,2,0,0,0,57,23.75l-9.68,9.69a3.92,3.92,0,0,1-5.54-5.54c2-2,6-6,8-8,2.32-2.32,5.07-3.35,8.92-3.35a11.46,11.46,0,0,0,7.4-2.6L85.59,34C72.86,46.68,75.37,44.17,75,44.51Zm13.32-13.3L69,11.34l7.06-6.66L95.47,24.1Z"/></g></g></svg>