<svg xmlns="http://www.w3.org/2000/svg" viewBox="0 0 80.12 80.12"><defs><style>.cls-1{fill:#fff;}</style></defs><g id="Layer_2" data-name="Layer 2"><g id="Calque_1" data-name="Calque 1"><path class="cls-1" d="M15.51,10.34V7.75A7.76,7.76,0,0,0,0,7.75V72.36a7.77,7.77,0,0,0,7.75,7.76H80.12V10.34ZM7.75,2.58a5.18,5.18,0,0,1,5.17,5.17V65.33a5.05,5.05,0,0,0-2.58-.72H7.75a7.76,7.76,0,0,0-5.17,2V7.75A5.18,5.18,0,0,1,7.75,2.58Zm5.17,67.2a2.59,2.59,0,0,1-2.58,2.58V67.19A2.59,2.59,0,0,1,12.92,69.78Zm64.61,7.75H7.75a5.17,5.17,0,1,1,0-10.34V75h2.59a5.18,5.18,0,0,0,5.17-5.17V12.92h62Z"/><path class="cls-1" d="M57.66,41.35H44.26l-2.91-3.23-2.91,3.23H25.05L17.29,56.86h3.39V75H62V56.86h3.38Zm-1.6,2.58,5.17,10.34h-7V52.48l-7.69-8.55ZM43.93,72.36H38.77V62h5.16ZM36.18,59.44V72.36H31V54.27H51.69V72.36H46.52V59.44Zm13.9-7.75H32.62L41.35,42ZM26.64,43.93h9.48l-7.69,8.55v1.79h-7ZM23.26,56.86h5.17v15.5H23.26Zm36.18,15.5H54.27V56.86h5.17Z"/><path class="cls-1" d="M75,15.51H49.1V38.77H75ZM72.36,36.18H51.69V18.09H72.36Z"/><path class="cls-1" d="M31,15.51H18.09V28.43H31ZM28.43,25.84H20.68V18.09h7.75Z"/><path class="cls-1" d="M46.52,15.51H33.6V28.43H46.52ZM43.93,25.84H36.18V18.09h7.75Z"/><path class="cls-1" d="M18.09,31h2.59V33.6H18.09Z"/><path class="cls-1" d="M23.26,31H46.52V33.6H23.26Z"/><path class="cls-1" d="M18.09,36.18h2.59v2.59H18.09Z"/><path class="cls-1" d="M23.26,36.18H36.18v2.59H23.26Z"/><path class="cls-1" d="M72.36,72.36H75V75H72.36Z"/><path class="cls-1" d="M72.36,62H75v2.58H72.36Z"/><path class="cls-1" d="M72.36,67.19H75v2.59H72.36Z"/><path class="cls-1" d="M5.17,49.1H7.75v2.59H5.17Z"/><path class="cls-1" d="M5.17,54.27H7.75v2.59H5.17Z"/><path class="cls-1" d="M5.17,59.44H7.75V62H5.17Z"/></g></g></svg>