<?xml version="1.0" encoding="utf-8"?>
<!-- Generator: Adobe Illustrator 24.1.2, SVG Export Plug-In . SVG Version: 6.00 Build 0)  -->
<svg version="1.1" id="Layer_1" xmlns="http://www.w3.org/2000/svg" x="0px" y="0px"
	 viewBox="0 0 59.8 73.9" style="enable-background:new 0 0 59.8 73.9;" xml:space="preserve">
<style type="text/css">
	.st0{fill:#FFFFFF;}
</style>
<g>
	<g>
		<path class="st0" d="M59.6,66.8c0-0.8-0.4-1.3-1.1-1.3c-0.9-0.1-1.2,0.6-1.2,1.4c0,1,0,2,0,3c0.1,1.2-0.4,1.7-1.6,1.7
			c-1.9-0.1-3.9-0.1-5.8,0c-1.1,0-1.5-0.3-1.5-1.5c0.1-2.9,0-5.7,0-8.6c0-1.8-0.6-3.2-2.2-4c-0.5-0.3-0.8-0.6-0.8-1.2c0-3,0-6,0-9.2
			c2.2,0.9,4.2,1.6,6.1,2.4c3.4,1.4,5.3,4.1,5.6,7.7c0.1,1.2,0.1,2.5,0.1,3.7c0,0.8,0.2,1.5,1.2,1.5c0.9,0,1.2-0.6,1.2-1.4
			s0-1.6,0-2.5c0-5.5-2.7-9.4-7.8-11.4c-4.4-1.7-8.8-3.4-13.2-5.1c-1.8-0.7-2.2-2.9-0.7-4.2c2-1.8,3.4-3.9,3.9-6.5
			c0.2-1,0.7-1.4,1.6-1.7c2.8-0.9,4.6-3.5,3.9-6.2c-0.2-0.9-0.4-1.7-0.5-2.6c-1,0.6-2.6,1.1-4.8,1.6c-1.2,0.2-2.5,0.4-4,0.6
			c0.5,0.2,0.9,0.5,1.4,0.7c0.7,0.4,0.6,0.4,0.6,3.2c0.3,6.5-3.2,10-7.3,11.1c-6.5,1.8-12.5-2.7-12.9-9.5c-0.2-3.4-0.1-4.5,1.8-5.5
			c-1.5-0.1-2.9-0.3-4.1-0.6c-1.8-0.3-3.3-0.7-4.4-1.2c0,0.2-0.1,0.5-0.2,0.7c-1.2,3.9-0.1,6.4,3.8,7.8c0.6,0.2,0.9,0.4,1.1,1.1
			c0.6,2.8,2,5.2,4.2,7.1c1.2,1.1,0.7,3.4-0.8,4c-4.6,1.8-9.1,3.5-13.7,5.3C2.8,49,0,53.1,0,58.2c0,3.8,0,7.6,0,11.4
			c0,3.3,1,4.3,4.3,4.3H47c3.1,0,6.2,0,9.3,0c2,0,3.3-1.1,3.5-3C59.7,69.5,59.6,68.2,59.6,66.8z M44.6,23.7c0.3,0.1,0.3,0.3,0.3,0.5
			c0.3,1.2-1.1,3.2-2.3,3.2c-0.7,0-0.5-1.1-0.6-1.4C42.1,24.9,43.8,23.5,44.6,23.7z M16.8,27.4c-1.1,0-2.3-1.6-2.3-2.9
			c0-0.3-0.2-0.8,0.5-0.8c1.5,0.1,2.4,0.9,2.4,2.4C17.2,26.5,17.9,27.4,16.8,27.4z M40,45.1c0.3,0,0.4,0,0.5,0.1
			c2.1,0.3,2.8,1.4,2.6,3.5c-0.2,3.4-0.1,6.8,0,10.1c0.1,1.4-0.7,1.3-1.6,1.3c-0.9,0-1.6,0.1-1.6-1.3C40.1,54.3,40,49.8,40,45.1z
			 M37.1,43.9c1,0.4,0.5,1.2,0.6,1.7c0.2,1-0.3,1.7-0.8,2.4c-0.5,0.6-1,1.3-1.5,2c-1.6,2.1-1.5,2.1-3.5,0.2
			c-0.7-0.7-0.7-1.1-0.1-1.8c1.2-1.2,2.4-2.5,3.7-3.8C36,44.3,36.2,43.6,37.1,43.9z M24.8,40.1c0.3-0.7,1,0,1.5,0.1
			c2.4,0.6,4.8,0.7,7.2-0.1c1.1-0.4,1.5-0.2,1.3,1c0.1,0.7,0,1.2-0.6,1.7c-1.3,1.3-2.6,2.5-3.8,3.9c-0.5,0.6-0.8,0.5-1.4,0
			c-1.3-1.4-2.6-2.7-3.9-4c-0.1-0.1-0.3-0.3-0.3-0.4C24.8,41.5,24.5,40.7,24.8,40.1z M21.6,44.8c0.1-0.8,0.5-0.9,1.3-1.1
			c0.2,0,0.4,0.3,0.6,0.6c1.3,1.3,2.6,2.7,3.9,4c0.8,0.8,0.8,1.2,0,2c-1.8,1.7-1.8,1.8-3.3-0.3C23,48.4,21.3,47.1,21.6,44.8z
			 M16.4,47.3c0-0.9,1.6-2.2,2.5-2c0.6,0.2,0.3,0.7,0.3,1c0,2.2,0,4.3,0,6.5c0,2-0.1,4.1,0,6.1c0.1,1.2-0.5,1.3-1.4,1.3
			c-0.8-0.1-1.5,0.2-1.5-1.2C16.4,55.1,16.4,51.2,16.4,47.3z M11.1,61.3c0,2.9-0.1,5.9,0,8.8c0,1.2-0.4,1.5-1.5,1.5
			c-1.9-0.1-3.9,0-5.8,0c-1.1,0-1.6-0.3-1.6-1.5c0.1-4.3,0-8.5,0.2-12.8c0.1-3.4,1.9-5.9,4.8-7.4c2.1-1.1,4.4-1.8,6.7-2.7
			c0,3.2,0,6.2,0,9.3c0,0.7-0.3,0.9-0.8,1.1C11.7,58.3,11.1,59.7,11.1,61.3z M44.7,71.5c-10,0-20,0-30,0c-0.5,0-1.3,0.2-1.3-0.7
			c0-3.5,0-7,0.2-10.6c0.6,1.3,1.3,2.2,2.8,2.2c1.3,0,2.6,0.2,3.8-0.2c0.9-0.3,1.4-1.1,1.4-2c0-0.8,0.4-0.9,1.1-0.9c1.3,0,2.7,0,4,0
			c0.8,0,1.4-0.3,1.4-1.2c0-0.8-0.6-1.2-1.5-1.1c-1.3,0-2.6,0-3.9,0c-0.9,0-1.2-0.2-1.2-1.1c0.1-1.5,0-3.1,0-5
			c0.7,0.9,1.2,1.6,1.7,2.2c1.2,1.6,2.7,1.7,4.2,0.4c2.2-2,2.2-2,4.4,0c1.4,1.3,3,1.2,4.2-0.4c0.5-0.6,0.9-1.2,1.6-2.1
			c0,2,0,3.4,0,4.9c0,0.9-0.2,1.3-1.2,1.2c-1.3-0.1-2.6,0-3.9,0c-0.8,0-1.4,0.3-1.4,1.2s0.6,1.1,1.4,1.2c0.9,0,1.8,0,2.6,0
			c1.2,0,2.7-0.5,2.5,1.7c0,0.3,0.5,0.8,0.9,1c2,1.3,5.8,0.2,6.9-2c0.5,0.6,0.4,1.3,0.4,2c0,2.7,0,5.4,0,8.1
			C46.1,71.1,45.9,71.5,44.7,71.5z M43.1,14.6c0,0.2,0,0.4,0,0.5c0,0.6,0,1.2-0.1,1.7c0,0.1,0,0.2,0,0.3l0,0
			c1.5,0.3,2.7,0.7,3.4,1.2 M13.1,17.9c0.8-0.3,1.8-0.6,2.9-0.8l0,0c0-0.1,0-0.2,0-0.2c0-0.3-0.1-0.6-0.1-0.8"/>
	</g>
</g>
<g>
	<path class="st0" d="M29.4,24.9c-3.2,0-5.9-0.1-8.1-0.4c-1.5-0.1-3-0.3-4.2-0.6c-1.9-0.3-3.5-0.8-4.7-1.3c-0.7-0.3-2.7-1.1-2.7-3
		c0-1.3,1-2.4,3.1-3.1c0.4-0.2,1.1-0.4,1.8-0.6v-0.6c0-8.3,6.8-15.1,15.1-15.1v0l0-0.2c8.1,0.1,14.7,6.5,15.1,14.4l0,0.6
		c0,0.3,0,0.6,0,0.8c1.2,0.3,2,0.7,2.7,1.1l0.1,0.1c1,0.9,1.5,1.7,1.5,2.6c0,0.9-0.5,1.8-1.6,2.4c-1.1,0.7-2.8,1.2-5.3,1.8
		c-1.3,0.2-2.6,0.4-4.1,0.6C35.8,24.8,32.9,24.9,29.4,24.9z M13.1,19.6c0.1,0.1,0.3,0.1,0.5,0.2c1,0.5,2.4,0.8,4.1,1.1l0.1,0
		c1.1,0.3,2.4,0.5,3.8,0.6c2.2,0.3,4.7,0.4,7.8,0.4c3.4,0,6.1-0.1,8.3-0.4c1.5-0.2,2.7-0.4,3.9-0.6c2-0.5,3.4-0.9,4.2-1.4
		c-0.1,0-0.1-0.1-0.2-0.2c-0.3-0.2-1-0.6-2.8-0.9l-1.2-0.2l0-1.8c0.1-0.4,0.1-0.9,0.1-1.4v-0.5c-0.2-4.9-3.5-9.1-8-10.8
		c0,0.1,0,0.2,0,0.4v4.8c0,2.2-1.9,4.1-4.1,4.1c-2.2,0-4.1-1.9-4.1-4.1V4.3c0-0.1,0-0.3,0-0.4c-4.7,1.7-8,6.2-8,11.4l0,0.9
		c0,0.2,0.1,0.4,0.1,0.7v1.5l-1.2,0.2c-1.1,0.2-2.1,0.5-2.6,0.7C13.5,19.4,13.3,19.5,13.1,19.6z M29.7,3.2c-0.6,0-1.1,0.5-1.1,1.1
		v4.6c0,0.6,0.5,1.1,1.1,1.1s1.1-0.5,1.1-1.1V4.1c0-0.3-0.1-0.5-0.2-0.6l-0.1-0.1C30.3,3.3,30,3.1,29.7,3V3.2z"/>
</g>
</svg>
