<?xml version="1.0" encoding="utf-8"?>
<!-- Generator: Adobe Illustrator 24.1.2, SVG Export Plug-In . SVG Version: 6.00 Build 0)  -->
<svg version="1.1" id="Layer_1" xmlns="http://www.w3.org/2000/svg" x="0px" y="0px"
     viewBox="0 0 59.8 76.4" style="enable-background:new 0 0 59.8 76.4;" xml:space="preserve">
<style type="text/css">
	.st0{fill:#FFFFFF;}
	.st1{fill:none;stroke:#FFFFFF;stroke-width:8;stroke-miterlimit:10;}
</style>
<g>
	<path class="st0" d="M59.6,69.3c0-0.8-0.4-1.3-1.1-1.3c-0.9-0.1-1.2,0.6-1.2,1.4c0,1,0,2,0,3c0.1,1.2-0.4,1.7-1.6,1.7
		c-1.9-0.1-3.9-0.1-5.8,0c-1.1,0-1.5-0.3-1.5-1.5c0.1-2.9,0-5.7,0-8.6c0-1.8-0.6-3.2-2.2-4c-0.5-0.3-0.8-0.6-0.8-1.2c0-3,0-6,0-9.2
		c2.2,0.9,4.2,1.6,6.1,2.4c3.4,1.4,5.3,4.1,5.6,7.7c0.1,1.2,0.1,2.5,0.1,3.7c0,0.8,0.2,1.5,1.2,1.5c0.9,0,1.2-0.6,1.2-1.4
		c0-0.8,0-1.6,0-2.5c0-5.5-2.7-9.4-7.8-11.4c-4.4-1.7-8.8-3.4-13.2-5.1c-1.8-0.7-2.2-2.9-0.7-4.2c2-1.8,3.4-3.9,3.9-6.5
		c0.2-1,0.7-1.4,1.6-1.7c2.8-0.9,4.6-3.5,3.9-6.2c-0.2-0.9-0.4-1.7-0.5-2.6c-1,0.6-2.6,1.1-4.8,1.6c-1.2,0.2-2.5,0.4-4,0.6
		c0.5,0.2,0.9,0.5,1.4,0.7c0.7,0.4,0.6,0.4,0.6,3.2c0.3,6.5-3.2,10-7.3,11.1c-6.5,1.8-12.5-2.7-12.9-9.5c-0.2-3.4-0.1-4.5,1.8-5.5
		c-1.5-0.1-2.9-0.3-4.1-0.6c-1.8-0.3-3.3-0.7-4.4-1.2c0,0.2-0.1,0.5-0.2,0.7c-1.2,3.9-0.1,6.4,3.8,7.8c0.6,0.2,0.9,0.4,1.1,1.1
		c0.6,2.8,2,5.2,4.2,7.1c1.2,1.1,0.7,3.4-0.8,4c-4.6,1.8-9.1,3.5-13.7,5.3C2.8,51.5,0,55.6,0,60.7c0,3.8,0,7.6,0,11.4
		c0,3.3,1,4.3,4.3,4.3H47c3.1,0,6.2,0,9.3,0c2,0,3.3-1.1,3.5-3C59.7,72,59.6,70.7,59.6,69.3z M44.6,26.2c0.3,0.1,0.3,0.3,0.3,0.5
		c0.3,1.2-1.1,3.2-2.3,3.2c-0.7,0-0.5-1.1-0.6-1.4C42.1,27.4,43.8,26,44.6,26.2z M16.8,29.9c-1.1,0-2.3-1.6-2.3-2.9
		c0-0.3-0.2-0.8,0.5-0.8c1.5,0.1,2.4,0.9,2.4,2.4C17.2,29,17.9,29.9,16.8,29.9z M40,47.6c0.3,0,0.4,0,0.5,0.1
		c2.1,0.3,2.8,1.4,2.6,3.5c-0.2,3.4-0.1,6.8,0,10.1c0.1,1.4-0.7,1.3-1.6,1.3c-0.9,0-1.6,0.1-1.6-1.3C40.1,56.8,40,52.3,40,47.6z
		 M37.1,46.4c1,0.4,0.5,1.2,0.6,1.7c0.2,1-0.3,1.7-0.8,2.4c-0.5,0.6-1,1.3-1.5,2c-1.6,2.1-1.5,2.1-3.5,0.2c-0.7-0.7-0.7-1.1-0.1-1.8
		c1.2-1.2,2.4-2.5,3.7-3.8C36,46.8,36.2,46.1,37.1,46.4z M24.8,42.6c0.3-0.7,1,0,1.5,0.1c2.4,0.6,4.8,0.7,7.2-0.1
		c1.1-0.4,1.5-0.2,1.3,1c0.1,0.7,0,1.2-0.6,1.7c-1.3,1.3-2.6,2.5-3.8,3.9c-0.5,0.6-0.8,0.5-1.4,0c-1.3-1.4-2.6-2.7-3.9-4
		c-0.1-0.1-0.3-0.3-0.3-0.4C24.8,44,24.5,43.2,24.8,42.6z M21.6,47.3c0.1-0.8,0.5-0.9,1.3-1.1c0.2,0,0.4,0.3,0.6,0.6
		c1.3,1.3,2.6,2.7,3.9,4c0.8,0.8,0.8,1.2,0,2c-1.8,1.7-1.8,1.8-3.3-0.3C23,50.9,21.3,49.6,21.6,47.3z M16.4,49.8
		c0-0.9,1.6-2.2,2.5-2c0.6,0.2,0.3,0.7,0.3,1c0,2.2,0,4.3,0,6.5c0,2-0.1,4.1,0,6.1c0.1,1.2-0.5,1.3-1.4,1.3
		c-0.8-0.1-1.5,0.2-1.5-1.2C16.4,57.6,16.4,53.7,16.4,49.8z M11.1,63.8c0,2.9-0.1,5.9,0,8.8c0,1.2-0.4,1.5-1.5,1.5
		c-1.9-0.1-3.9,0-5.8,0c-1.1,0-1.6-0.3-1.6-1.5c0.1-4.3,0-8.5,0.2-12.8c0.1-3.4,1.9-5.9,4.8-7.4c2.1-1.1,4.4-1.8,6.7-2.7
		c0,3.2,0,6.2,0,9.3c0,0.7-0.3,0.9-0.8,1.1C11.7,60.8,11.1,62.2,11.1,63.8z M44.7,74c-10,0-20,0-30,0c-0.5,0-1.3,0.2-1.3-0.7
		c0-3.5,0-7,0.2-10.6c0.6,1.3,1.3,2.2,2.8,2.2c1.3,0,2.6,0.2,3.8-0.2c0.9-0.3,1.4-1.1,1.4-2c0-0.8,0.4-0.9,1.1-0.9c1.3,0,2.7,0,4,0
		c0.8,0,1.4-0.3,1.4-1.2c0-0.8-0.6-1.2-1.5-1.1c-1.3,0-2.6,0-3.9,0c-0.9,0-1.2-0.2-1.2-1.1c0.1-1.5,0-3.1,0-5
		c0.7,0.9,1.2,1.6,1.7,2.2c1.2,1.6,2.7,1.7,4.2,0.4c2.2-2,2.2-2,4.4,0c1.4,1.3,3,1.2,4.2-0.4c0.5-0.6,0.9-1.2,1.6-2.1
		c0,2,0,3.4,0,4.9c0,0.9-0.2,1.3-1.2,1.2c-1.3-0.1-2.6,0-3.9,0c-0.8,0-1.4,0.3-1.4,1.2s0.6,1.1,1.4,1.2c0.9,0,1.8,0,2.6,0
		c1.2,0,2.7-0.5,2.5,1.7c0,0.3,0.5,0.8,0.9,1c2,1.3,5.8,0.2,6.9-2c0.5,0.6,0.4,1.3,0.4,2c0,2.7,0,5.4,0,8.1
		C46.1,73.6,45.9,74,44.7,74z M43.1,17.1c0,0.2,0,0.4,0,0.5c0,0.6,0,1.2-0.1,1.7c0,0.1,0,0.2,0,0.3l0,0c1.5,0.3,2.7,0.7,3.4,1.2
		 M13.1,20.4c0.8-0.3,1.8-0.6,2.9-0.8l0,0c0-0.1,0-0.2,0-0.2c0-0.3-0.1-0.6-0.1-0.8"/>
</g>
<path class="st1" d="M47.6,22.1c0,0.4-0.3,0.8-0.9,1.2c-1,0.6-2.6,1.1-4.8,1.6c-1.2,0.2-2.5,0.4-4,0.6c-2.5,0.3-5.4,0.4-8.5,0.4
	c-2.8,0-5.5-0.1-7.9-0.4c-1.5-0.1-2.9-0.3-4.1-0.6c-1.8-0.3-3.3-0.7-4.4-1.2c-1.2-0.5-1.8-1-1.8-1.6s0.7-1.2,2.1-1.7
	c0.8-0.3,1.8-0.6,2.9-0.8l0,0c0-0.1,0-0.2,0-0.2c0-0.3-0.1-0.6-0.1-0.8c0-0.3,0-0.6,0-0.8c0-7.5,6.1-13.6,13.6-13.6
	c-1.4,0-2.6,1.2-2.6,2.6v4.6c0,1.4,1.2,2.6,2.6,2.6s2.6-1.2,2.6-2.6V6.6c0-0.7-0.3-1.4-0.8-1.8c-0.4-0.4-1.2-0.7-1.8-0.8
	C37,4.1,43,9.8,43.3,17c0,0.2,0,0.4,0,0.5c0,0.6,0,1.2-0.1,1.7c0,0.1,0,0.2,0,0.3l0,0c1.5,0.3,2.7,0.7,3.4,1.2
	C47.2,21.2,47.6,21.7,47.6,22.1z"/>
</svg>
