<?xml version="1.0" encoding="utf-8"?>
<!-- Generator: Adobe Illustrator 24.1.2, SVG Export Plug-In . SVG Version: 6.00 Build 0)  -->
<svg version="1.1" id="Layer_1" xmlns="http://www.w3.org/2000/svg" xmlns:xlink="http://www.w3.org/1999/xlink" x="0px" y="0px"
	 viewBox="0 0 49.6 81.4" style="enable-background:new 0 0 49.6 81.4;" xml:space="preserve">
<g style="fill:#ffffff">
	<g>
		<path d="M45.8,73.1L45.8,73.1l0-11.6c0-3.9-2.5-8.8-5.7-11.2L28,41.4v-1.5L40.1,31c3.2-2.3,5.7-7.2,5.7-11.2V8.3h0
			c2.1,0,3.8-1.7,3.8-3.8V3.8c0-2.1-1.7-3.8-3.8-3.8h-42C1.7,0,0,1.7,0,3.8v0.6c0,2.1,1.7,3.8,3.8,3.8l0,11.6
			c0,3.9,2.5,8.8,5.6,11.1l12.1,8.9v1.5L9.5,50.4c-3.2,2.3-5.6,7.2-5.6,11.1v11.6h0c-2.1,0-3.8,1.7-3.8,3.8v0.6
			c0,2.1,1.7,3.8,3.8,3.8h42c2.1,0,3.8-1.7,3.8-3.8v-0.6C49.6,74.8,47.9,73.1,45.8,73.1z M43.2,73.1h-3.2v-10c0-2.9-1.8-6.5-4.2-8.2
			l-10.3-7.6c-0.4-0.3-1.1-0.3-1.5,0l-10.4,7.6c-2.3,1.7-4.2,5.3-4.2,8.2v10H6.4V61.5c0-3.1,2.1-7.3,4.6-9.1l12.7-9.3
			c0.3-0.2,0.5-0.6,0.5-1v-2.8c0-0.4-0.2-0.8-0.5-1L11,29c-2.5-1.8-4.6-6-4.6-9.1V8.3h36.9v11.6c0,3.1-2.1,7.3-4.6,9.1L26,38.3
			c-0.3,0.2-0.5,0.6-0.5,1v2.8c0,0.4,0.2,0.8,0.5,1l12.6,9.3c2.5,1.8,4.6,6,4.6,9.1L43.2,73.1L43.2,73.1z"/>
	</g>
</g>
<g style="fill:#ffffff">
	<g>
		<path d="M36.4,25.1c-0.2-0.5-0.7-0.9-1.2-0.9l-20.7,0c-0.5,0-1,0.4-1.2,0.9c-0.2,0.5,0,1.1,0.5,1.4l10.4,7.6
			c0.2,0.2,0.5,0.2,0.8,0.2c0.3,0,0.5-0.1,0.8-0.2l10.3-7.6C36.4,26.1,36.5,25.6,36.4,25.1z"/>
	</g>
</g>
</svg>
